<svg width="250" height="147" viewBox="0 0 250 147" fill="none" xmlns="http://www.w3.org/2000/svg">
    <path fill-rule="evenodd" clip-rule="evenodd"
        d="M26.4551 0V20.164H49.2646V0H50.2646V20.164H73.0741V0H74.0741V20.164H96.8835V0H97.8835V20.164H120.693V0H121.693V20.164H144.503V0H145.503V20.164H168.312V0H169.312V20.164H192.122V0H193.122V20.164H215.931V0H216.931V20.164H250V21.164H216.931V40.0053H250V41.0053H216.931V61.1693H250V62.1693H216.931V79.6879H250V80.6879H216.931V99.5291H250V100.529H216.931V119.37H250V120.37H216.931V146.825H215.931V120.37H193.122V146.825H192.122V120.37H169.312V146.825H168.312V120.37H145.503V146.825H144.503V120.37H121.693L121.693 146.825H120.693L120.693 120.37H97.8835L97.8836 146.825H96.8836L96.8835 120.37H74.0741L74.0741 146.825H73.0741L73.0741 120.37H50.2646L50.2646 146.825H49.2646L49.2646 120.37H26.4551L26.4551 146.825H25.4551L25.4551 120.37H0V119.37H25.4551V100.529H0V99.5291H25.4551L25.4551 80.6879H0V79.6879H25.4551V62.1693H0V61.1693H25.4551V41.0053H0V40.0053H25.4551L25.4551 21.164H0V20.164H25.4551V0H26.4551ZM26.4551 119.37H49.2646V100.529H26.4551V119.37ZM50.2646 119.37H73.0741V100.529H50.2646V119.37ZM74.0741 119.37H96.8835V100.529H74.0741V119.37ZM97.8835 119.37H120.693V100.529H97.8835V119.37ZM121.693 119.37H144.503V100.529H121.693V119.37ZM145.503 119.37H168.312V100.529H145.503V119.37ZM169.312 119.37H192.122V100.529H169.312V119.37ZM193.122 119.37H215.931V100.529H193.122V119.37ZM215.931 80.6879V99.5291H193.122V80.6879H215.931ZM192.122 80.6879V99.5291H169.312V80.6879H192.122ZM168.312 80.6879V99.5291H145.503V80.6879H168.312ZM144.503 80.6879V99.5291H121.693V80.6879H144.503ZM120.693 80.6879V99.5291H97.8835V80.6879H120.693ZM96.8835 80.6879V99.5291H74.0741V80.6879H96.8835ZM73.0741 80.6879V99.5291H50.2646V80.6879H73.0741ZM49.2646 80.6879V99.5291H26.4551L26.4551 80.6879H49.2646ZM26.4551 79.6879H49.2646V62.1693H26.4551V79.6879ZM50.2646 79.6879H73.0741V62.1693H50.2646V79.6879ZM74.0741 79.6879H96.8835V62.1693H74.0741V79.6879ZM97.8835 79.6879H120.693V62.1693H97.8835V79.6879ZM121.693 79.6879H144.503V62.1693H121.693V79.6879ZM145.503 79.6879H168.312V62.1693H145.503V79.6879ZM169.312 79.6879H192.122V62.1693H169.312V79.6879ZM193.122 79.6879H215.931V62.1693H193.122V79.6879ZM193.122 21.164H215.931V40.0053H193.122V21.164ZM193.122 41.0053H215.931V61.1693H193.122V41.0053ZM192.122 61.1693V41.0053H169.312V61.1693H192.122ZM192.122 40.0053V21.164H169.312V40.0053H192.122ZM145.503 21.164H168.312V40.0053H145.503V21.164ZM145.503 41.0053H168.312V61.1693H145.503V41.0053ZM144.503 61.1693V41.0053H121.693V61.1693H144.503ZM144.503 40.0053V21.164H121.693V40.0053H144.503ZM97.8835 21.164H120.693V40.0053H97.8835V21.164ZM97.8835 41.0053H120.693V61.1693H97.8835V41.0053ZM96.8835 61.1693V41.0053H74.0741V61.1693H96.8835ZM96.8835 40.0053V21.164H74.0741V40.0053H96.8835ZM50.2646 21.164H73.0741V40.0053H50.2646L50.2646 21.164ZM50.2646 41.0053H73.0741V61.1693H50.2646V41.0053ZM49.2646 61.1693V41.0053H26.4551V61.1693H49.2646ZM49.2646 40.0053L49.2646 21.164H26.4551L26.4551 40.0053H49.2646Z"
        fill="url(#paint0_radial_210_1420)" />
    <rect x="38.5" y="28.5955" width="172" height="91" rx="2" fill="#0F0F0F" />
    <path fill-rule="evenodd" clip-rule="evenodd"
        d="M40.5 28.5955C39.3954 28.5955 38.5 29.4909 38.5 30.5955V119.595H210.5V30.5955C210.5 29.4909 209.605 28.5955 208.5 28.5955H40.5ZM40.5 29.5955H89.5V51.5955H39.5V30.5955C39.5 30.0432 39.9477 29.5955 40.5 29.5955ZM156.5 29.5955H90.5V51.5955H156.5V29.5955ZM156.5 52.5955H90.5V73.5955H156.5V52.5955ZM157.5 73.5955V52.5955H209.5V73.5955H157.5ZM156.5 74.5955H90.5V96.5955H156.5V74.5955ZM157.5 96.5955V74.5955H209.5V96.5955H157.5ZM156.5 97.5955H90.5V118.595H156.5V97.5955ZM157.5 118.595V97.5955H209.5V118.595H157.5ZM157.5 51.5955V29.5955H208.5C209.052 29.5955 209.5 30.0432 209.5 30.5955V51.5955H157.5ZM89.5 118.595V97.5955H39.5V118.595H89.5ZM89.5 96.5955V74.5955H39.5V96.5955H89.5ZM89.5 73.5955V52.5955H39.5V73.5955H89.5Z"
        fill="#1A1A1A" />
    <rect x="39" y="52.0955" width="51" height="22" rx="1.5" stroke="white" />
    <rect x="47.5" y="83.5955" width="23" height="4" rx="2" fill="#979797" fill-opacity="0.7" />
    <rect x="45.5" y="61.5955" width="36" height="4" rx="2" fill="#31B702" />
    <rect x="45.5" y="38.5955" width="36" height="4" rx="2" fill="#979797" />
    <rect x="106.5" y="38.5955" width="36" height="4" rx="2" fill="#979797" fill-opacity="0.7" />
    <rect x="165.5" y="38.5955" width="36" height="4" rx="2" fill="#979797" fill-opacity="0.5" />
    <rect x="47.5" y="107.595" width="33" height="4" rx="2" fill="#979797" fill-opacity="0.5" />
    <defs>
        <radialGradient id="paint0_radial_210_1420" cx="0" cy="0" r="1" gradientUnits="userSpaceOnUse"
            gradientTransform="translate(114.418 71.4286) rotate(90.2751) scale(87.0724 148.258)">
            <stop stop-color="#165500" />
            <stop offset="1" stop-opacity="0" />
        </radialGradient>
    </defs>
</svg>