<svg xmlns="http://www.w3.org/2000/svg" viewBox="0 0 24 24" style="width: 100%; height: 100%;" fill="none"
    stroke="currentColor" stroke-linecap="round" stroke-linejoin="round" stroke-width="2">
    <path
        d="M9.333 19.744a18.476 18.476 0 0 1-4.753.179.555.555 0 0 1-.503-.503 18.476 18.476 0 0 1 .18-4.753m10.41 5.077c1.58.264 3.178.324 4.753.179a.555.555 0 0 0 .503-.503 18.475 18.475 0 0 0-.18-4.753M4.258 9.333a18.476 18.476 0 0 1-.18-4.753.555.555 0 0 1 .503-.503 18.476 18.476 0 0 1 4.753.18m5.334 0a18.476 18.476 0 0 1 4.753-.18.555.555 0 0 1 .503.503 18.476 18.476 0 0 1-.18 4.753" />

</svg>